<svg xmlns="http://www.w3.org/2000/svg" width="24" height="24">
<g transform="scale(1.4, 1.4) translate(0.5, 0.5)">
	<line x2="3" stroke="#929292" y2="13" x1="8" y1="3" stroke-width="1.9" />
	<line x2="13" stroke="#929292" y2="13" x1="8" y1="3" stroke-width="1.9" />
	<circle r="2.75" cx="13" cy="13" fill="none" stroke-width="0.5" stroke="#929292" />
	<circle r="2.05" cx="3" cy="13" fill="black" stroke="#00a1eb" />
	<circle r="2.05" cx="13" cy="13" fill="black" stroke="#00a1eb" />
	<circle r="2.05" cx="8" cy="3" fill="black" stroke="#00a1eb" />

	<line x2="3" stroke="black" y2="13" x1="8" y1="3" />
	<line x2="13" stroke="black" y2="13" x1="8" y1="3" />
  	<mask id="cut-line">
    	<rect width="100%" height="100%" fill="white"/>
		<line x2="3" stroke="black" y2="13" x1="8" y1="3" />
		<line x2="13" stroke="black" y2="13" x1="8" y1="3" />
	</mask>

	<g>
		<line x2="10" stroke="#929292" y2="4.5" x1="8" y1="3" stroke-width="1.4" stroke-linecap="butt" />
		<line x2="8" stroke="#929292" y2="3" x1="8" y1="5.5" stroke-width="1.4" />
		<circle r="0.5" cx="8" cy="3" fill="none" stroke="#929292" stroke-width="0.4" />
		<circle r="0.5" cx="8" cy="3" fill="white" stroke="none" stroke-width="0" />
		<line x2="10" stroke="white" y2="4.5" x1="8" y1="3" />
		<line x2="8" stroke="white" y2="3" x1="8" y1="5.5" />
	</g>
	<g>
		<line x2="3" stroke="#929292" y2="13" x1="5" y1="11.5" stroke-width="1.4" />
		<line x2="3" stroke="#929292" y2="13" x1="3" y1="10.5" stroke-width="1.4" />
		<circle r="0.5" cx="3" cy="13" fill="none" stroke="#929292" stroke-width="0.4" />
		<circle r="0.5" cx="3" cy="13" fill="white" stroke="none" stroke-width="0" />
		<line x2="3" stroke="white" y2="13" x1="3" y1="10.5" />
		<line x2="3" stroke="white" y2="13" x1="5" y1="11.5" />
	</g>
	<circle r="2.75" cx="8" cy="3" fill="none" stroke-width="0.5" stroke="#929292" mask="url(#cut-line)" />
	<circle r="2.75" cx="3" cy="13" fill="none" stroke-width="0.5" stroke="#929292" mask="url(#cut-line)" />
</g>
</svg>