<svg xmlns="http://www.w3.org/2000/svg" width="24" height="24">
<g transform="scale(1.4, 1.4) translate(0.5, 0.5)">
	<mask id="mask1">
		<rect x="0" y="0" width="16" height="16" stroke="white" fill="white" />
		<line x2="3" y2="13" x1="8" y1="3" stroke="black" />
		<line x2="13" y2="13" x1="8" y1="3" stroke="black" />
		<circle r="2" cx="3" cy="13" stroke="black" />
		<circle r="2" cx="13" cy="13" stroke="black" />
		<circle r="2" cx="8" cy="3" stroke="black" />
	</mask>

	<g mask="url(#mask1)">
		<line x2="3" stroke="currentColor" y2="13" x1="8" y1="3" stroke-width="1.9" />
		<line x2="13" stroke="currentColor" y2="13" x1="8" y1="3" stroke-width="1.9" />
		<circle r="3" cx="3" cy="13" fill="currentColor" stroke-width="0" />
		<circle r="3" cx="13" cy="13" fill="currentColor" stroke-width="0" />
		<circle r="3" cx="8" cy="3" fill="currentColor" stroke-width="0" />
	</g>

	<mask id="arrow_sub">
		<rect x="0" y="0" width="16" height="16" stroke="white" fill="white" />

		<!-- top arrow -->
		<line x2="10" stroke="black" y2="4.5" x1="8" y1="3" />
		<line x2="8" stroke="black" y2="3" x1="8" y1="5.5" />
		<circle r="0.5" cx="8" cy="3" fill="black" />

		<!-- left arrow -->
		<line x2="3" stroke="black" y2="13" x1="3" y1="10.5" />
		<line x2="3" stroke="black" y2="13" x1="5" y1="11.5" />
		<circle r="0.5" cx="3" cy="13" fill="black" />
	</mask>

	<g mask="url(#arrow_sub)">
		<!-- top arrow -->
		<line x2="10" stroke="currentColor" y2="4.5" x1="8" y1="3" stroke-width="1.4" />
		<line x2="8" stroke="currentColor" y2="3" x1="8" y1="5.5" stroke-width="1.4" />
		<circle r="0.5" cx="8" cy="3" fill="currentColor" stroke="currentColor" stroke-width="0.4" />
		<circle r="1" cx="8" cy="3" stroke="currentColor" />

		<!-- left arrow -->
		<line x2="3" stroke="currentColor" y2="13" x1="5" y1="11.5" stroke-width="1.4" />
		<line x2="3" stroke="currentColor" y2="13" x1="3" y1="10.5" stroke-width="1.4" />
		<circle r="0.5" cx="3" cy="13" fill="currentColor" stroke="currentColor" stroke-width="0.4" />
		<circle r="1.5" cx="3" cy="13" fill="currentColor" />

		<circle r="1.5" cx="13" cy="13" fill="currentColor" stroke-width="0" />
	</g>
</g>
</svg>